<svg width="249" height="44" viewBox="0 0 249 44" fill="none" xmlns="http://www.w3.org/2000/svg">
<path d="M21.0288 2.72972C21.308 1.87052 22.5235 1.87052 22.8027 2.72972L26.6267 14.499C26.7516 14.8832 27.1097 15.1434 27.5137 15.1434H39.8886C40.792 15.1434 41.1677 16.2994 40.4368 16.8305L30.4252 24.1043C30.0984 24.3417 29.9616 24.7627 30.0865 25.1469L33.9105 36.9162C34.1897 37.7754 33.2063 38.4899 32.4754 37.9589L22.4639 30.6851C22.137 30.4476 21.6944 30.4476 21.3676 30.6851L11.356 37.9589C10.6252 38.4899 9.64176 37.7754 9.92093 36.9162L13.745 25.1469C13.8698 24.7627 13.7331 24.3417 13.4062 24.1043L3.39467 16.8305C2.66379 16.2994 3.03941 15.1434 3.94283 15.1434H16.3178C16.7218 15.1434 17.0799 14.8832 17.2047 14.499L21.0288 2.72972Z" fill="#FFDF5F"/>
<path d="M72.3218 2.72972C72.6009 1.87052 73.8165 1.87052 74.0956 2.72972L77.9197 14.499C78.0446 14.8832 78.4026 15.1434 78.8067 15.1434H91.1816C92.085 15.1434 92.4606 16.2994 91.7298 16.8305L81.7182 24.1043C81.3914 24.3417 81.2546 24.7627 81.3794 25.1469L85.2035 36.9162C85.4827 37.7754 84.4993 38.4899 83.7684 37.9589L73.7569 30.6851C73.43 30.4476 72.9874 30.4476 72.6605 30.6851L62.649 37.9589C61.9181 38.4899 60.9347 37.7754 61.2139 36.9162L65.038 25.1469C65.1628 24.7627 65.026 24.3417 64.6992 24.1043L54.6876 16.8305C53.9568 16.2994 54.3324 15.1434 55.2358 15.1434H67.6107C68.0148 15.1434 68.3728 14.8832 68.4977 14.499L72.3218 2.72972Z" fill="#FFDF5F"/>
<path d="M123.615 2.72972C123.894 1.87052 125.109 1.87052 125.389 2.72972L129.213 14.499C129.338 14.8832 129.696 15.1434 130.1 15.1434H142.475C143.378 15.1434 143.754 16.2994 143.023 16.8305L133.011 24.1043C132.684 24.3417 132.548 24.7627 132.672 25.1469L136.496 36.9162C136.776 37.7754 135.792 38.4899 135.061 37.9589L125.05 30.6851C124.723 30.4476 124.28 30.4476 123.954 30.6851L113.942 37.9589C113.211 38.4899 112.228 37.7754 112.507 36.9162L116.331 25.1469C116.456 24.7627 116.319 24.3417 115.992 24.1043L105.981 16.8305C105.25 16.2994 105.625 15.1434 106.529 15.1434H118.904C119.308 15.1434 119.666 14.8832 119.791 14.499L123.615 2.72972Z" fill="#FFDF5F"/>
<path d="M174.908 2.72972C175.187 1.87052 176.402 1.87052 176.682 2.72972L180.506 14.499C180.63 14.8832 180.989 15.1434 181.393 15.1434H193.768C194.671 15.1434 195.047 16.2994 194.316 16.8305L184.304 24.1043C183.977 24.3417 183.841 24.7627 183.965 25.1469L187.789 36.9162C188.069 37.7754 187.085 38.4899 186.354 37.9589L176.343 30.6851C176.016 30.4476 175.573 30.4476 175.246 30.6851L165.235 37.9589C164.504 38.4899 163.521 37.7754 163.8 36.9162L167.624 25.1469C167.749 24.7627 167.612 24.3417 167.285 24.1043L157.274 16.8305C156.543 16.2994 156.918 15.1434 157.822 15.1434H170.197C170.601 15.1434 170.959 14.8832 171.084 14.499L174.908 2.72972Z" fill="#FFDF5F"/>
<path d="M226.197 2.72972C226.476 1.87052 227.691 1.87052 227.971 2.72972L231.795 14.499C231.92 14.8832 232.278 15.1434 232.682 15.1434H245.057C245.96 15.1434 246.336 16.2994 245.605 16.8305L235.593 24.1043C235.266 24.3417 235.13 24.7627 235.254 25.1469L239.079 36.9162C239.358 37.7754 238.374 38.4899 237.643 37.9589L227.632 30.6851C227.305 30.4476 226.862 30.4476 226.536 30.6851L216.524 37.9589C215.793 38.4899 214.81 37.7754 215.089 36.9162L218.913 25.1469C219.038 24.7627 218.901 24.3417 218.574 24.1043L208.563 16.8305C207.832 16.2994 208.207 15.1434 209.111 15.1434H221.486C221.89 15.1434 222.248 14.8832 222.373 14.499L226.197 2.72972Z" fill="#FFDF5F"/>
</svg>
